<svg xmlns="http://www.w3.org/2000/svg" width="78.67" height="63.78" viewBox="0 0 78.67 63.78">
	<style type="text/css">
		.st0{fill:#efefef;;}
	</style>
	<path class="st0" d="M34.96,7.06L30.71,0C28.27,1.49 0,12.2 0,39.61C0,46.84 0.33,63.78 18.89,63.78C30.08,63.78 32.83,53.5 32.83,50.2C32.83,28.22 11.45,36.02 11.45,36.02C11.45,17.95 31.26,9.18 34.96,7.06"/>
	<path class="st0" d="M78.67,7.06L74.41,0C71.97,1.49 43.7,12.2 43.7,39.61C43.7,46.84 44.04,63.78 62.6,63.78C73.79,63.78 76.54,53.5 76.54,50.2C76.54,28.22 55.16,36.02 55.16,36.02C55.16,17.95 74.96,9.18 78.67,7.06"/>
</svg>
