<svg xmlns="http://www.w3.org/2000/svg" width="26.75" height="26.75" viewBox="0 0 26.75 26.75">
	<style type="text/css">
		.st0{fill:#f25b26;}
	</style>
	<path class="st0" d="M15.49,13.37L26.31,2.56C26.89,1.97 26.89,1.02 26.31,0.44C25.72,-0.14 24.77,-0.14 24.19,0.44L13.37,11.25L2.56,0.43C1.97,-0.14 1.02,-0.14 0.44,0.43C-0.14,1.02 -0.14,1.97 0.44,2.56L11.25,13.37L0.43,24.19C-0.14,24.77 -0.14,25.72 0.43,26.31C0.73,26.6 1.11,26.75 1.5,26.75C1.88,26.75 2.26,26.6 2.56,26.31L13.37,15.49L24.19,26.31C24.48,26.6 24.86,26.75 25.25,26.75C25.63,26.75 26.01,26.6 26.31,26.31C26.89,25.72 26.89,24.77 26.31,24.19Z"/>
</svg>
