<svg xmlns="http://www.w3.org/2000/svg" width="298" height="345.09" viewBox="0 0 298 345.09">
	<style type="text/css">
		.st0{fill:#dedede;}
	</style>
	<path class="st0" d="M149,306.26C88.15,306.26 38.83,256.94 38.83,196.09C38.83,135.25 88.15,85.92 149,85.92C209.84,85.92 259.16,135.25 259.16,196.09C259.16,256.94 209.84,306.26 149,306.26M264.56,102.05L269.92,96.69C277.64,88.98 279.04,77.76 273.04,71.76C267.05,65.76 255.83,67.17 248.11,74.89L242.72,80.27C221.76,63.29 196.1,51.87 168,48.29L168,38.71L175.65,38.71C186.57,38.71 195.5,30 195.5,19.35C195.5,8.71 186.57,0 175.65,0L122.34,0C111.42,0 102.5,8.71 102.5,19.35C102.5,30 111.42,38.71 122.34,38.71L130,38.71L130,48.29C56.68,57.62 0,120.24 0,196.09C0,278.38 66.7,345.09 149,345.09C231.29,345.09 298,278.38 298,196.09C298,160.43 285.46,127.7 264.56,102.05"/>
</svg>
