<svg xmlns="http://www.w3.org/2000/svg" width="12.54" height="11.99" viewBox="0 0 12.54 11.99"><style type="text/css">.st0{fill:#d22856;}</style>
<path class="st0" d="M1.99,5.28C2.19,5.53 4.46,8.12 6.23,10.14L10.55,5.19C10.89,4.82 11.07,4.33 11.07,3.79C11.07,2.51 10.03,1.46 8.74,1.46C8.01,1.46 7.32,1.81 6.84,2.41C6.7,2.58 6.49,2.67 6.26,2.68C6.03,2.68 5.82,2.57 5.68,2.39C5.24,1.8 4.55,1.46 3.79,1.46C2.51,1.46 1.46,2.51 1.46,3.79C1.46,4.47 1.74,4.97 1.97,5.26C1.98,5.27 1.98,5.27 1.99,5.28M6.23,11.99C6.02,11.99 5.82,11.89 5.68,11.74C1.88,7.41 1.04,6.44 0.82,6.16L0.82,6.17C0.29,5.49 0,4.65 0,3.79C0,1.7 1.7,0 3.79,0C4.73,0 5.6,0.32 6.28,0.89C6.97,0.32 7.84,0 8.74,0C10.84,0 12.54,1.7 12.54,3.79C12.54,4.7 12.22,5.55 11.64,6.18L6.78,11.74C6.64,11.89 6.44,11.99 6.23,11.99Z"/>
</svg>
